#Comment line ignore any data following # character 
#Hierarchical Translation and Rotation (.htr) file 
[Header]	
#Header keywords are followed by a single value 
FileType HTR		#Single word string
DataType HTRS		#Translation followed by rotation and scale data
FileVersion 1		#integer
NumSegments 64		#integer
NumFrames 2		#integer
DataFrameRate 30		#integer, data frame rate in this file
EulerRotationOrder ZYX
CalibrationUnits mm
RotationUnits Degrees
GlobalAxisofGravity Y
BoneLengthAxis Y
ScaleFactor 1.00
[SegmentNames&Hierarchy]
#CHILD	PARENT
Pinger_Root GLOBAL
Pelvis Pinger_Root
L_Hip Pelvis
R_Hip Pelvis
Rear_Leg01 Pelvis
Spine1 Pelvis
L_Leg01 L_Hip
L_Leg02 L_Leg01
L_Leg03 L_Leg02
L_Foot L_Leg03
L_Toe1_01 L_Foot
L_Toe2_01 L_Foot
L_Toe3_01 L_Foot
planeAlignerLeft L_Foot
L_Toe1_02 L_Toe1_01
L_Toe1_03 L_Toe1_02
L_Toe2_02 L_Toe2_01
L_Toe2_03 L_Toe2_02
L_Toe3_02 L_Toe3_01
L_Toe3_03 L_Toe3_02
planeLockWeightLeft planeAlignerLeft
R_Leg01 R_Hip
R_Leg02 R_Leg01
R_Leg03 R_Leg02
R_Foot R_Leg03
planeAlignerRight R_Foot
R_Toe1_01 R_Foot
R_Toe2_01 R_Foot
R_Toe3_01 R_Foot
planeLockWeightRight planeAlignerRight
R_Toe1_02 R_Toe1_01
R_Toe1_03 R_Toe1_02
R_Toe2_02 R_Toe2_01
R_Toe2_03 R_Toe2_02
R_Toe3_02 R_Toe3_01
R_Toe3_03 R_Toe3_02
Rear_Leg02 Rear_Leg01
Rear_Leg03 Rear_Leg02
Rear_Leg04 Rear_Leg03
Rear_Foot Rear_Leg04
planeAlignerCenter Rear_Foot
Rear_Toe1_01 Rear_Foot
Rear_Toe2_01 Rear_Foot
Rear_Toe3_01 Rear_Foot
planeLockWeightCenter planeAlignerCenter
Rear_Toe1_02 Rear_Toe1_01
Rear_Toe1_03 Rear_Toe1_02
Rear_Toe2_02 Rear_Toe2_01
Rear_Toe2_03 Rear_Toe2_02
Rear_Toe3_02 Rear_Toe3_01
Rear_Toe3_03 Rear_Toe3_02
Back_Bone Spine1
Head Spine1
Motor_Bone Back_Bone
Ping_Mechanism Back_Bone
BN_LookIK Head
bottomMouth Head
L_Mouth01 Head
L_mouthFront Head
mouthGun Head
R_Mouth01 Head
R_mouthFront Head
TopMouth Head
weapon_bone Head
[BasePosition]
#SegmentName Tx, Ty, Tz, Rx, Ry, Rz, BoneLength
Pinger_Root 0.000000 0.000000 0.000000 -90.000000 0.000000 0.000000 10.000000 
Pelvis 0.000000 0.000000 0.000000 0.000000 0.000000 0.000000 10.000000 
L_Hip 0.000000 0.000000 0.000000 0.000000 0.000000 0.000000 10.000000 
R_Hip 0.000000 0.000000 0.000000 0.000000 0.000000 0.000000 10.000000 
Rear_Leg01 0.000000 0.000000 0.000000 0.000000 0.000000 0.000000 10.000000 
Spine1 0.000000 0.000000 0.000000 0.000000 0.000000 0.000000 10.000000 
L_Leg01 0.000000 0.000000 0.000000 0.000000 0.000000 0.000000 10.000000 
L_Leg02 0.000000 0.000000 0.000000 0.000000 0.000000 0.000000 10.000000 
L_Leg03 0.000000 0.000000 0.000000 0.000000 0.000000 0.000000 10.000000 
L_Foot 0.000000 0.000000 0.000000 0.000000 0.000000 0.000000 10.000000 
L_Toe1_01 0.000000 0.000000 0.000000 0.000000 0.000000 0.000000 10.000000 
L_Toe2_01 0.000000 0.000000 0.000000 0.000000 0.000000 0.000000 10.000000 
L_Toe3_01 0.000000 0.000000 0.000000 0.000000 0.000000 0.000000 10.000000 
planeAlignerLeft 0.000000 0.000000 0.000000 0.000000 0.000000 0.000000 10.000000 
L_Toe1_02 0.000000 0.000000 0.000000 0.000000 0.000000 0.000000 10.000000 
L_Toe1_03 0.000000 0.000000 0.000000 0.000000 0.000000 0.000000 10.000000 
L_Toe2_02 0.000000 0.000000 0.000000 0.000000 0.000000 0.000000 10.000000 
L_Toe2_03 0.000000 0.000000 0.000000 0.000000 0.000000 0.000000 10.000000 
L_Toe3_02 0.000000 0.000000 0.000000 0.000000 0.000000 0.000000 10.000000 
L_Toe3_03 0.000000 0.000000 0.000000 0.000000 0.000000 0.000000 10.000000 
planeLockWeightLeft 0.000000 0.000000 0.000000 0.000000 0.000000 0.000000 10.000000 
R_Leg01 0.000000 0.000000 0.000000 0.000000 0.000000 0.000000 10.000000 
R_Leg02 0.000000 0.000000 0.000000 0.000000 0.000000 0.000000 10.000000 
R_Leg03 0.000000 0.000000 0.000000 0.000000 0.000000 0.000000 10.000000 
R_Foot 0.000000 0.000000 0.000000 0.000000 0.000000 0.000000 10.000000 
planeAlignerRight 0.000000 0.000000 0.000000 0.000000 0.000000 0.000000 10.000000 
R_Toe1_01 0.000000 0.000000 0.000000 0.000000 0.000000 0.000000 10.000000 
R_Toe2_01 0.000000 0.000000 0.000000 0.000000 0.000000 0.000000 10.000000 
R_Toe3_01 0.000000 0.000000 0.000000 0.000000 0.000000 0.000000 10.000000 
planeLockWeightRight 0.000000 0.000000 0.000000 0.000000 0.000000 0.000000 10.000000 
R_Toe1_02 0.000000 0.000000 0.000000 0.000000 0.000000 0.000000 10.000000 
R_Toe1_03 0.000000 0.000000 0.000000 0.000000 0.000000 0.000000 10.000000 
R_Toe2_02 0.000000 0.000000 0.000000 0.000000 0.000000 0.000000 10.000000 
R_Toe2_03 0.000000 0.000000 0.000000 0.000000 0.000000 0.000000 10.000000 
R_Toe3_02 0.000000 0.000000 0.000000 0.000000 0.000000 0.000000 10.000000 
R_Toe3_03 0.000000 0.000000 0.000000 0.000000 0.000000 0.000000 10.000000 
Rear_Leg02 0.000000 0.000000 0.000000 0.000000 0.000000 0.000000 10.000000 
Rear_Leg03 0.000000 0.000000 0.000000 0.000000 0.000000 0.000000 10.000000 
Rear_Leg04 0.000000 0.000000 0.000000 0.000000 0.000000 0.000000 10.000000 
Rear_Foot 0.000000 0.000000 0.000000 0.000000 0.000000 0.000000 10.000000 
planeAlignerCenter 0.000000 0.000000 0.000000 0.000000 0.000000 0.000000 10.000000 
Rear_Toe1_01 0.000000 0.000000 0.000000 0.000000 0.000000 0.000000 10.000000 
Rear_Toe2_01 0.000000 0.000000 0.000000 0.000000 0.000000 0.000000 10.000000 
Rear_Toe3_01 0.000000 0.000000 0.000000 0.000000 0.000000 0.000000 10.000000 
planeLockWeightCenter 0.000000 0.000000 0.000000 0.000000 0.000000 0.000000 10.000000 
Rear_Toe1_02 0.000000 0.000000 0.000000 0.000000 0.000000 0.000000 10.000000 
Rear_Toe1_03 0.000000 0.000000 0.000000 0.000000 0.000000 0.000000 10.000000 
Rear_Toe2_02 0.000000 0.000000 0.000000 0.000000 0.000000 0.000000 10.000000 
Rear_Toe2_03 0.000000 0.000000 0.000000 0.000000 0.000000 0.000000 10.000000 
Rear_Toe3_02 0.000000 0.000000 0.000000 0.000000 0.000000 0.000000 10.000000 
Rear_Toe3_03 0.000000 0.000000 0.000000 0.000000 0.000000 0.000000 10.000000 
Back_Bone 0.000000 0.000000 0.000000 0.000000 0.000000 0.000000 10.000000 
Head 0.000000 0.000000 0.000000 0.000000 0.000000 0.000000 10.000000 
Motor_Bone 0.000000 0.000000 0.000000 0.000000 0.000000 0.000000 10.000000 
Ping_Mechanism 0.000000 0.000000 0.000000 0.000000 0.000000 0.000000 10.000000 
BN_LookIK 0.000000 0.000000 0.000000 0.000000 0.000000 0.000000 10.000000 
bottomMouth 0.000000 0.000000 0.000000 0.000000 0.000000 0.000000 10.000000 
L_Mouth01 0.000000 0.000000 0.000000 0.000000 0.000000 0.000000 10.000000 
L_mouthFront 0.000000 0.000000 0.000000 0.000000 0.000000 0.000000 10.000000 
mouthGun 0.000000 0.000000 0.000000 0.000000 0.000000 0.000000 10.000000 
R_Mouth01 0.000000 0.000000 0.000000 0.000000 0.000000 0.000000 10.000000 
R_mouthFront 0.000000 0.000000 0.000000 0.000000 0.000000 0.000000 10.000000 
TopMouth 0.000000 0.000000 0.000000 0.000000 0.000000 0.000000 10.000000 
weapon_bone 0.000000 0.000000 0.000000 0.000000 0.000000 0.000000 10.000000 
#Beginning of Data. Separated by tabs
#Fr	Tx	Ty	Tz	Rx	Ry	Rz	SF
[Pinger_Root]
9 0.000000 0.000153 0.000000 -0.000075 -0.000000 -0.000020 0.000153
10 0.000000 0.000172 0.000000 -0.000075 -0.000000 -0.000020 0.000172
[Pelvis]
9 -186.685501 834.014771 4125.080566 -53.554535 -69.993195 51.191708 4212.686035
10 -195.879883 951.449585 4133.531250 -48.826710 -71.146233 46.492775 4246.140137
[L_Hip]
9 5.766392 125.831482 872.656799 160.001236 -58.370327 116.329842 881.701050
10 5.766392 125.831482 872.656799 160.361404 -61.083023 114.956413 881.701050
[R_Hip]
9 5.765438 125.836372 -872.654907 35.888206 61.643661 122.850159 881.699829
10 5.765438 125.836372 -872.654907 35.030926 63.972179 121.970543 881.699829
[Rear_Leg01]
9 -192.298416 -925.602966 -0.001907 -174.965958 13.760989 -145.936172 945.367432
10 -192.298416 -925.602966 -0.001907 -175.480209 14.428307 -148.404449 945.367432
[Spine1]
9 290.604584 5.007505 0.000477 -1.126005 -11.224730 9.022116 290.647736
10 290.604584 5.007505 0.000477 -1.541963 -11.775936 11.346381 290.647736
[L_Leg01]
9 761.932007 -0.002384 -0.069261 8.794792 -45.311455 -11.427855 761.932068
10 761.932007 -0.002384 -0.069261 14.767771 -46.891998 -19.654806 761.932068
[L_Leg02]
9 1441.140503 -0.000954 -0.000715 2.276499 -0.243370 -129.545212 1441.140503
10 1441.140503 -0.000954 -0.000715 2.144951 -0.250209 -129.106079 1441.140503
[L_Leg03]
9 1686.963989 -0.000715 -0.000954 -0.018917 0.007162 115.575409 1686.963989
10 1686.963989 -0.000715 -0.000954 -0.017060 0.005918 114.918274 1686.963989
[L_Foot]
9 3041.570068 -30.715107 11.297464 9.682713 13.578389 55.199619 3041.746094
10 3041.570068 -30.715107 11.297464 9.651019 13.824064 57.078991 3041.746094
[L_Toe1_01]
9 -188.216690 -224.732346 -21.137953 96.917267 -6.859140 -171.969788 293.899567
10 -188.216690 -224.732346 -21.137953 97.584984 -6.857864 -171.969376 293.899567
[L_Toe2_01]
9 200.746536 -219.926590 148.838394 -88.531067 -25.868662 -52.666607 332.896027
10 200.746536 -219.926590 148.838394 -88.243401 -25.783497 -52.664337 332.896027
[L_Toe3_01]
9 188.832520 -219.859131 -191.078659 -105.502907 12.407108 -67.342880 347.140900
10 188.832520 -219.859131 -191.078659 -106.583138 12.140095 -67.264137 347.140900
[planeAlignerLeft]
9 32.990112 -593.018799 101.087303 169.306686 -76.298271 89.968506 602.476746
10 32.990112 -593.018738 101.087166 169.306686 -76.298271 89.968506 602.476685
[L_Toe1_02]
9 413.761139 0.000477 0.000000 0.001384 -25.983923 0.001384 413.761139
10 413.761139 0.000477 0.000000 0.001384 -25.980303 0.001384 413.761139
[L_Toe1_03]
9 464.317322 0.000358 -0.000089 0.003734 53.359097 0.003734 464.317322
10 464.317322 0.000358 -0.000089 0.003734 53.359097 0.003734 464.317322
[L_Toe2_02]
9 342.235809 -0.000477 0.000238 0.001188 -72.402016 0.001188 342.235809
10 342.235809 -0.000477 0.000238 0.001188 -72.402016 0.001188 342.235809
[L_Toe2_03]
9 420.210846 -0.000715 0.000000 0.029090 85.375511 0.029090 420.210846
10 420.210846 -0.000715 0.000000 0.029090 85.375511 0.029090 420.210846
[L_Toe3_02]
9 329.270111 0.000954 0.000000 0.001178 -80.565536 0.001178 329.270111
10 329.270111 0.000954 0.000000 0.001178 -80.576248 0.001178 329.270111
[L_Toe3_03]
9 439.137451 -0.001907 0.000954 -179.995956 78.605698 -179.992447 439.137451
10 439.137451 -0.001907 0.000954 -179.995956 78.605698 -179.992447 439.137451
[planeLockWeightLeft]
9 -0.001068 0.000000 -0.000296 -0.011826 -0.004376 0.005620 0.001108
10 -0.001068 0.000000 -0.000296 -0.011826 -0.004376 0.005620 0.001108
[R_Leg01]
9 761.455627 -0.001907 -0.000358 127.458160 -52.851105 -3.236744 761.455688
10 761.455627 -0.001907 -0.000358 121.648132 -53.429073 5.538786 761.455688
[R_Leg02]
9 1441.140625 0.000000 -0.000238 -2.628861 -0.316227 177.719925 1441.140625
10 1441.140625 0.000000 -0.000238 -2.406294 -0.157450 179.412979 1441.140625
[R_Leg03]
9 1686.963989 0.000954 0.001431 0.058434 -0.031496 126.404007 1686.963989
10 1686.963989 0.000954 0.001431 0.046553 -0.023594 123.145454 1686.963989
[R_Foot]
9 3041.560059 -30.531288 -11.204481 26.038889 -21.330471 69.555466 3041.734131
10 3041.560059 -30.531288 -11.204481 26.728102 -21.660130 72.803070 3041.734131
[planeAlignerRight]
9 -20.109409 -809.459473 -44.921597 -36.810787 -87.636864 -54.737000 810.954346
10 -15.139318 -809.300354 -7.647589 -34.755997 -89.357758 -55.670311 809.478088
[R_Toe1_01]
9 -188.383347 -224.864899 21.052242 91.397652 1.935076 -150.857773 294.101532
10 -188.383347 -224.864899 21.052242 92.838928 1.687173 -149.461533 294.101532
[R_Toe2_01]
9 200.637817 -220.002121 -148.787384 -98.896278 13.522251 -60.310143 332.857574
10 200.637817 -220.002121 -148.787384 -99.381180 11.464707 -59.234016 332.857574
[R_Toe3_01]
9 188.606735 -220.092957 191.126343 -73.213760 -11.283873 -63.535267 347.192566
10 188.606735 -220.092957 191.126343 -73.000320 -12.233808 -61.566296 347.192566
[planeLockWeightRight]
9 259.259064 0.000000 -0.000038 -0.011823 -0.004379 -0.000027 259.259094
10 740.740051 0.000305 0.000029 -0.011823 -0.004379 -0.000027 740.740112
[R_Toe1_02]
9 413.762085 0.000477 -0.000119 0.001388 -25.453680 0.001388 413.762085
10 413.762085 0.000477 -0.000119 0.001388 -25.520214 0.001388 413.762085
[R_Toe1_03]
9 464.317810 0.000000 0.001088 0.004942 62.525200 0.004942 464.317810
10 464.317810 0.000000 0.001088 0.004850 61.993652 0.004850 464.317810
[R_Toe2_02]
9 342.234741 -0.000954 0.000238 0.001193 -69.114227 0.001193 342.234741
10 342.234741 -0.000954 0.000238 0.001190 -70.676987 0.001190 342.234741
[R_Toe2_03]
9 420.210846 0.000715 -0.000268 0.010877 77.612175 0.010877 420.210846
10 420.210846 0.000715 -0.000268 0.015274 81.186256 0.015274 420.210846
[R_Toe3_02]
9 329.270355 -0.000477 -0.000954 0.001185 -74.177246 0.001185 329.270355
10 329.270355 -0.000477 -0.000954 0.001184 -75.047768 0.001184 329.270355
[R_Toe3_03]
9 439.137939 0.000238 0.001431 0.017980 82.515015 0.017980 439.137939
10 439.137939 0.000238 0.001431 -0.014021 84.630936 -0.010521 439.137939
[Rear_Leg02]
9 1162.777710 -0.029802 0.005960 -8.572815 24.582846 -99.495445 1162.777710
10 1162.777710 -0.029802 0.005960 -6.142144 24.214403 -101.176537 1162.777710
[Rear_Leg03]
9 607.192505 -0.013351 -0.073195 0.010537 -0.005012 67.231186 607.192505
10 607.192505 -0.013351 -0.073195 0.010609 -0.004858 65.558548 607.192505
[Rear_Leg04]
9 995.874512 -0.020504 -0.011921 -0.043883 -0.017211 64.234047 995.874573
10 995.874512 -0.020504 -0.011921 -0.043340 -0.018536 60.751461 995.874573
[Rear_Foot]
9 3096.176270 -0.067472 -0.041425 61.640305 63.603294 -115.542076 3096.176270
10 3096.176270 -0.067472 -0.041425 58.951725 64.534889 -115.207695 3096.176270
[planeAlignerCenter]
9 1.814123 8.150916 -712.737915 12.240773 -0.001473 179.998184 712.786865
10 1.993751 23.654770 -654.694763 12.240773 -0.001473 179.998184 655.124939
[Rear_Toe1_01]
9 0.653352 83.966492 -371.173737 0.238787 37.740742 90.345345 380.553192
10 0.653352 83.966492 -371.173737 0.210594 33.903664 90.323013 380.553192
[Rear_Toe2_01]
9 178.200760 -294.826019 -362.060547 -5.802313 31.224962 -65.092522 499.765686
10 178.200760 -294.826019 -362.060547 -5.859269 27.950703 -64.675705 499.765686
[Rear_Toe3_01]
9 -153.359680 -308.780914 -362.060852 3.633650 30.522329 -112.891754 499.952881
10 -153.359680 -308.780914 -362.060852 3.846792 27.398682 -113.165955 499.952881
[planeLockWeightCenter]
9 1000.000244 0.000493 -0.000123 -0.011814 -0.004373 -0.000015 1000.000244
10 1000.000122 0.000516 -0.000125 -0.011814 -0.004373 -0.000015 1000.000122
[Rear_Toe1_02]
9 379.707825 0.194073 0.000477 -0.000767 -33.624729 0.000838 379.707855
10 379.707825 0.194073 0.000477 -0.000767 -33.624729 0.000838 379.707855
[Rear_Toe1_03]
9 500.129700 0.165701 0.000119 0.000478 56.946907 0.007773 500.129761
10 500.129700 0.165701 0.000119 -0.004142 61.538395 -0.000534 500.129761
[Rear_Toe2_02]
9 340.494507 0.000238 -0.000954 0.001185 -73.935623 0.001185 340.494507
10 340.494507 0.000238 -0.000954 0.001182 -76.356834 0.001182 340.494507
[Rear_Toe2_03]
9 433.103577 0.000000 0.000238 0.009893 76.373596 0.009893 433.103546
10 433.103577 0.000000 0.000238 0.014286 80.575356 0.014286 433.103546
[Rear_Toe3_02]
9 340.494141 -0.000358 -0.000477 0.001189 -71.723152 0.001189 340.494171
10 340.494141 -0.000358 -0.000477 0.001185 -74.295082 0.001185 340.494171
[Rear_Toe3_03]
9 433.103577 0.001431 -0.000238 0.007826 72.749680 0.007826 433.103546
10 433.103577 0.001431 -0.000238 0.010366 76.997902 0.010366 433.103546
[Back_Bone]
9 1312.175781 -701.934692 0.000954 -0.001454 1.639555 -83.330566 1488.125488
10 1312.175781 -701.934692 0.000954 -0.402750 2.382721 -86.240128 1488.125488
[Head]
9 1406.159424 809.709290 0.001431 -0.229169 -0.118844 5.347834 1622.625488
10 1406.159424 809.709290 0.001431 -0.266773 0.164715 6.206227 1622.625488
[Motor_Bone]
9 1158.364380 -417.834747 0.000477 -1.034898 -1.069921 -107.053192 1231.419434
10 1158.364380 -417.834747 0.000477 -2.188887 -0.972376 -106.959076 1231.419434
[Ping_Mechanism]
9 1288.871948 -458.832397 64.394112 0.000103 -0.000053 82.120995 1369.622070
10 1279.784546 -452.963867 67.345497 0.000103 -0.000053 82.120995 1359.249878
[BN_LookIK]
9 193.241119 1380.371704 -0.002861 0.000000 89.965736 -31.038179 1393.832153
10 193.241119 1380.371704 -0.002861 0.000000 89.965736 -31.038179 1393.832153
[bottomMouth]
9 -435.092926 615.759399 -0.000954 -0.000022 0.000016 73.527184 753.966492
10 -435.092926 615.759399 -0.000954 -0.000022 0.000016 73.527184 753.966492
[L_Mouth01]
9 554.440979 7.658243 838.222046 150.204178 23.759130 109.605339 1005.027161
10 554.440979 7.658243 838.222046 150.204178 23.759130 109.605339 1005.027161
[L_mouthFront]
9 551.629089 934.514771 339.150421 0.000081 2.804060 79.119301 1136.941284
10 551.629089 934.514771 339.150421 0.000081 2.804060 79.119301 1136.941284
[mouthGun]
9 55.332661 1627.420898 0.000000 0.000023 0.000009 -11.038128 1628.361328
10 55.332661 1627.420898 0.000000 0.000023 0.000009 -11.038128 1628.361328
[R_Mouth01]
9 554.442383 7.659197 -838.223938 29.795891 -23.759109 109.605331 1005.029541
10 554.442383 7.659197 -838.223938 29.795891 -23.759109 109.605331 1005.029541
[R_mouthFront]
9 551.629089 934.514282 -339.151367 0.000029 -2.803930 79.119133 1136.941162
10 551.629089 934.514282 -339.151367 0.000029 -2.803930 79.119133 1136.941162
[TopMouth]
9 461.269867 -56.106091 -0.008583 -0.000059 -0.000268 92.025169 464.669525
10 461.269867 -56.106091 -0.008583 -0.000059 -0.000268 92.025169 464.669525
[weapon_bone]
9 -987.239868 1448.372803 0.001431 0.000000 89.965736 -31.038221 1752.833740
10 -987.239868 1448.372803 0.001431 0.000000 89.965736 -31.038221 1752.833740
